<?xml version="1.0" standalone="no"?>
<!DOCTYPE svg PUBLIC "-//W3C//DTD SVG 20010904//EN"
 "http://www.w3.org/TR/2001/REC-SVG-20010904/DTD/svg10.dtd">
<svg version="1.0" xmlns="http://www.w3.org/2000/svg"
 width="600.000000pt" height="600.000000pt" viewBox="0 0 600.000000 600.000000"
 preserveAspectRatio="xMidYMid meet">
<metadata>
Created by potrace 1.11, written by Peter Selinger 2001-2013
</metadata>
<g transform="translate(0.000000,600.000000) scale(0.100000,-0.100000)"
fill="#000000" stroke="none">
<path d="M2980 5564 c-45 -19 -69 -51 -70 -89 0 -33 43 -152 84 -234 67 -132
147 -365 130 -380 -5 -5 -35 -11 -66 -15 l-57 -6 -43 47 c-141 155 -285 253
-370 253 -29 0 -68 -43 -75 -82 -5 -33 -2 -41 25 -67 17 -15 57 -39 89 -51
114 -45 226 -101 217 -109 -5 -4 -61 -20 -124 -35 -134 -32 -174 -45 -286 -91
-224 -93 -400 -210 -577 -384 -291 -285 -449 -630 -472 -1031 -14 -237 56
-459 202 -639 28 -34 42 -60 38 -70 -15 -37 -17 -72 -6 -101 10 -31 9 -34 -52
-93 -99 -98 -216 -290 -287 -469 -12 -32 -28 -62 -35 -68 -45 -38 -160 -13
-260 55 -36 25 -71 45 -79 45 -20 0 -26 -39 -33 -213 -6 -175 4 -265 43 -379
82 -241 244 -383 506 -442 17 -4 34 -18 43 -36 54 -105 334 -169 865 -199 429
-25 624 -31 950 -31 298 0 694 16 864 35 328 37 537 84 676 153 68 33 138 102
147 142 4 23 16 36 43 50 52 26 114 100 138 163 40 106 46 140 47 271 l0 131
-37 3 c-36 3 -38 5 -38 39 0 50 -36 217 -65 305 l-25 75 25 57 c61 139 70 181
70 341 0 136 -3 158 -28 237 -15 48 -52 136 -81 195 l-54 108 5 190 c8 295
-27 473 -143 722 -217 469 -692 829 -1244 943 -144 30 -136 25 -111 63 75 114
134 267 134 350 0 68 -19 94 -75 104 -71 11 -91 -32 -118 -251 -13 -106 -37
-207 -53 -222 -8 -7 -32 -9 -67 -5 l-55 6 -6 195 c-7 217 -25 312 -80 426 -45
96 -93 121 -169 88z m168 -786 c7 -7 12 -24 12 -40 0 -38 20 -128 29 -128 4 0
12 37 19 82 6 45 17 85 23 89 11 6 89 1 98 -8 3 -2 -5 -27 -17 -55 -34 -81
-20 -76 65 26 13 14 31 26 42 26 71 0 361 -73 461 -117 251 -108 468 -259 619
-427 216 -241 325 -461 393 -791 16 -82 16 -364 0 -440 -42 -190 -99 -304
-204 -407 -95 -94 -128 -88 -113 21 17 122 -47 204 -185 239 -64 17 -191 32
-261 32 -56 0 -60 2 -78 33 -43 73 -87 117 -151 149 -57 29 -74 33 -145 33
-68 0 -89 -4 -136 -28 -83 -41 -141 -102 -168 -178 -9 -25 -15 -27 -93 -33
-239 -20 -403 -84 -477 -186 -59 -81 -49 -150 32 -237 38 -41 46 -57 52 -103
6 -51 30 -152 53 -225 33 -106 118 -243 188 -305 180 -158 473 -231 806 -202
308 26 505 97 624 224 138 147 153 329 43 551 -21 44 -39 81 -39 83 0 2 8 4
18 4 25 0 58 -38 136 -153 131 -194 225 -422 252 -611 6 -47 6 -48 -15 -36
-18 9 -31 8 -66 -6 l-44 -17 -37 32 -36 32 -30 -28 c-78 -74 -175 -228 -205
-324 -47 -157 10 -279 151 -323 18 -6 18 -7 1 -25 -18 -21 -89 -57 -170 -87
-46 -18 -48 -19 -21 -22 38 -5 145 31 223 74 59 33 103 43 103 25 0 -19 -67
-73 -125 -101 -101 -49 -237 -83 -480 -120 -398 -61 -1363 -70 -2040 -20 -491
37 -735 98 -735 186 0 34 13 36 71 10 108 -47 311 -80 383 -62 45 11 29 21
-61 40 -221 45 -358 100 -451 181 -65 58 -103 112 -139 201 -27 66 -28 77 -28
224 1 145 3 162 33 261 52 172 108 290 204 431 82 120 136 168 188 168 22 0
40 5 40 10 0 6 -5 10 -11 10 -20 0 -70 42 -80 67 -6 16 -5 31 2 44 10 19 12
19 32 5 12 -9 46 -32 75 -52 68 -47 65 -61 -37 -161 -24 -24 -40 -43 -37 -43
31 0 120 81 179 160 60 82 130 249 162 385 20 87 29 99 60 79 22 -14 25 -14
40 10 22 33 53 34 61 2 7 -30 28 -40 44 -20 35 41 55 -11 86 -226 26 -184 15
-347 -32 -472 -32 -84 -69 -136 -153 -215 -51 -48 -61 -62 -46 -63 11 0 37 11
57 25 50 34 59 15 19 -41 -29 -42 -29 -44 -9 -44 11 0 36 16 54 36 30 31 34
42 34 88 0 35 5 58 15 66 19 16 95 148 95 166 0 17 9 17 135 -1 176 -26 347
-14 198 14 -160 29 -281 63 -293 82 -3 4 -2 48 2 96 9 103 1 248 -19 353 -7
41 -18 97 -23 124 -13 68 -33 94 -77 101 -21 4 -48 10 -61 16 -34 13 -84 11
-106 -6 -11 -8 -32 -15 -46 -15 -46 0 -69 -37 -95 -156 -28 -123 -90 -293
-110 -300 -7 -3 -26 3 -42 12 -239 152 -383 419 -383 710 0 179 65 447 151
619 130 262 346 499 599 655 193 120 405 203 625 246 122 23 131 21 218 -46
42 -33 77 -56 77 -52 0 4 -16 32 -35 62 l-34 55 27 6 c43 10 57 10 70 -3z
m717 -1762 c57 -26 109 -81 137 -143 22 -51 20 -50 193 -58 147 -6 238 -30
287 -74 24 -22 32 -38 35 -78 3 -29 0 -66 -6 -84 -11 -31 -8 -37 33 -100 103
-155 139 -251 139 -374 0 -78 -3 -97 -26 -142 -52 -102 -167 -187 -319 -237
-137 -45 -258 -61 -468 -60 -191 0 -211 2 -303 27 -242 66 -389 188 -474 392
-23 55 -73 267 -73 310 0 19 -15 41 -54 78 -53 50 -60 64 -57 116 1 32 82 110
145 139 74 35 189 60 315 69 l113 8 16 40 c31 82 104 157 177 183 54 19 136
14 190 -12z m1168 -361 c29 -85 31 -99 32 -240 0 -133 -3 -157 -23 -209 -43
-110 -38 -110 -94 -5 -28 52 -53 96 -57 99 -4 3 -22 30 -40 60 -19 30 -36 57
-40 60 -3 3 -23 26 -44 52 l-37 47 63 78 c58 73 127 194 127 225 0 8 5 19 11
25 15 15 59 -68 102 -192z m-3935 -880 c31 -8 74 -15 95 -15 38 0 38 -1 32
-30 -12 -56 -23 -204 -19 -260 12 -152 71 -285 172 -385 37 -36 70 -65 74 -65
4 0 8 -9 8 -20 0 -26 -11 -25 -99 5 -79 27 -157 68 -210 112 -84 70 -169 225
-196 357 -16 78 -23 335 -10 356 4 6 24 0 52 -15 25 -14 70 -32 101 -40z
m3790 -185 c27 -20 30 -20 67 -4 l40 16 31 -36 c27 -31 37 -36 74 -36 l43 0
-6 -99 c-12 -189 -74 -322 -165 -352 -82 -27 -200 -4 -259 50 -68 61 -67 151
2 292 37 76 118 189 136 189 5 0 22 -9 37 -20z"/>
<path d="M4072 3240 c15 -156 160 -294 286 -274 85 13 142 98 142 208 0 83
-23 115 -34 49 -17 -107 -60 -176 -116 -188 -31 -7 -99 19 -135 52 -34 31 -81
96 -109 151 -14 28 -29 52 -32 52 -4 0 -4 -22 -2 -50z"/>
<path d="M2705 3199 c26 -155 125 -276 235 -287 63 -6 91 2 131 35 44 38 59
81 60 171 1 119 -11 131 -33 32 -33 -154 -92 -199 -195 -149 -53 25 -116 95
-154 171 -38 75 -53 84 -44 27z"/>
<path d="M2888 1628 l-38 -30 -46 16 -46 15 -36 -40 c-36 -40 -38 -41 -88 -35
-63 7 -64 5 -64 -107 0 -108 25 -261 52 -317 30 -62 114 -142 166 -157 88 -27
214 -8 292 43 129 86 127 251 -6 460 -41 65 -120 165 -138 176 -6 3 -28 -7
-48 -24z m116 -155 c102 -155 132 -265 92 -341 -36 -70 -178 -126 -262 -103
-118 32 -189 159 -201 359 l-6 102 46 0 c40 0 48 4 74 35 l28 36 44 -15 c41
-15 44 -15 68 4 14 11 32 20 39 20 7 0 42 -44 78 -97z"/>
<path d="M3538 814 c-4 -3 -235 -6 -515 -6 -496 -1 -505 -1 -368 -15 108 -11
250 -13 620 -8 500 6 608 11 584 26 -15 10 -312 13 -321 3z"/>
<path d="M3860 2821 c-14 -27 -13 -46 4 -60 11 -9 16 -3 28 34 14 42 14 45 -3
45 -10 0 -23 -9 -29 -19z"/>
<path d="M3640 2824 c0 -9 55 -74 63 -74 13 0 7 48 -9 64 -15 15 -54 22 -54
10z"/>
</g>
</svg>
